<svg width="191" height="191" viewBox="0 0 191 191" fill="none" xmlns="http://www.w3.org/2000/svg">
<path fill-rule="evenodd" clip-rule="evenodd" d="M40.1691 83.8001C38.7784 83.1614 37.1668 83.2689 35.8776 84.0926C34.5943 84.9162 33.8184 86.3368 33.8184 87.8648V123.743C33.8184 135.042 38.3069 145.881 46.299 153.873C54.2912 161.865 65.1245 166.354 76.4293 166.354H114.564C125.868 166.354 136.708 161.865 144.694 153.873C152.686 145.881 157.175 135.042 157.175 123.743V87.8708C157.175 86.3428 156.399 84.9222 155.115 84.0985C153.826 83.2748 152.214 83.1614 150.824 83.8001L109.09 103.043C100.471 107.013 90.5513 107.013 81.9325 103.043L40.1691 83.8001Z" fill="#717EEE"/>
<path fill-rule="evenodd" clip-rule="evenodd" d="M173.035 74.9238V104.589C173.035 107.06 175.041 109.065 177.512 109.065C179.983 109.065 181.988 107.06 181.988 104.589V74.9238C181.988 72.4528 179.983 70.4473 177.512 70.4473C175.041 70.4473 173.035 72.4528 173.035 74.9238Z" fill="#FFD564"/>
<path fill-rule="evenodd" clip-rule="evenodd" d="M33.8184 107.824L75.0505 126.823C88.0385 132.809 102.99 132.809 115.972 126.823L157.175 107.83V87.8708C157.175 86.3428 156.399 84.9222 155.115 84.0985C153.826 83.2748 152.214 83.1614 150.824 83.8001L109.09 103.043C100.471 107.013 90.5513 107.013 81.9325 103.043L40.1691 83.8001C38.7784 83.1614 37.1668 83.2689 35.8776 84.0926C34.5943 84.9162 33.8184 86.3368 33.8184 87.8648V107.824Z" fill="#5567EC"/>
<path fill-rule="evenodd" clip-rule="evenodd" d="M112.839 111.172L175.571 82.2534C180.429 80.0151 183.539 75.1566 183.539 69.8086C183.539 64.4606 180.429 59.602 175.571 57.3578L112.839 28.4451C101.845 23.3777 89.1791 23.3777 78.1847 28.4451C61.0842 36.3239 33.5563 49.0075 15.4292 57.3578C10.5707 59.596 7.46094 64.4606 7.46094 69.8086C7.46094 75.1566 10.5707 80.0151 15.4292 82.2594C33.5563 90.6097 61.0842 103.293 78.1847 111.172C89.1791 116.239 101.845 116.239 112.839 111.172Z" fill="#AAA5F5"/>
<path fill-rule="evenodd" clip-rule="evenodd" d="M13.9848 58.1367C9.96184 60.6137 7.46094 65.0127 7.46094 69.8116C7.46094 75.1596 10.5707 80.0182 15.4292 82.2624C33.5563 90.6127 61.0842 103.296 78.1847 111.175C89.1791 116.242 101.845 116.242 112.839 111.175L175.571 82.2564C180.429 80.0182 183.539 75.1596 183.539 69.8116C183.539 65.0127 181.038 60.6137 177.015 58.1367C176.556 58.4232 176.072 58.6799 175.571 58.9127L112.839 87.8253C101.845 92.8927 89.1791 92.8987 78.1847 87.8313C61.0842 79.9525 33.5563 67.2689 15.4292 58.9127C14.9278 58.6799 14.4444 58.4232 13.9848 58.1367Z" fill="#938BFD"/>
<path fill-rule="evenodd" clip-rule="evenodd" d="M112.839 111.172L175.571 82.2534C180.429 80.0151 183.539 75.1566 183.539 69.8086C183.539 64.4606 180.429 59.602 175.571 57.3578L112.839 28.4451C101.845 23.3777 89.1791 23.3777 78.1847 28.4451C61.0842 36.3239 33.5563 49.0075 15.4292 57.3578C10.5707 59.596 7.46094 64.4606 7.46094 69.8086C7.46094 75.1566 10.5707 80.0151 15.4292 82.2594C33.5563 90.6097 61.0842 103.293 78.1847 111.172C89.1791 116.239 101.845 116.239 112.839 111.172ZM171.822 74.124L109.091 103.043C100.472 107.012 90.5519 107.012 81.933 103.043C64.8326 95.1638 37.3047 82.4802 19.1776 74.124C17.4944 73.348 16.4141 71.6649 16.4141 69.8086C16.4141 67.9523 17.4944 66.2691 19.1776 65.4932L81.933 36.5746C90.5519 32.6054 100.472 32.6054 109.091 36.5746L171.822 65.4932C173.506 66.2691 174.586 67.9523 174.586 69.8086C174.586 71.6649 173.506 73.348 171.822 74.124Z" fill="#37455D"/>
<path fill-rule="evenodd" clip-rule="evenodd" d="M40.1691 83.8001C38.7784 83.1614 37.1668 83.2689 35.8776 84.0926C34.5943 84.9162 33.8184 86.3368 33.8184 87.8648V123.743C33.8184 135.042 38.3069 145.881 46.299 153.873C54.2912 161.865 65.1245 166.354 76.4293 166.354H114.564C125.868 166.354 136.708 161.865 144.694 153.873C152.686 145.881 157.175 135.042 157.175 123.743V87.8708C157.175 86.3428 156.399 84.9222 155.115 84.0985C153.826 83.2748 152.214 83.1614 150.824 83.8001L109.09 103.043C100.471 107.013 90.5513 107.013 81.9325 103.043L40.1691 83.8001ZM42.7715 94.8542L78.1841 111.173C89.1785 116.24 101.844 116.24 112.839 111.173L148.221 94.8602V123.743C148.221 132.666 144.676 141.231 138.367 147.54C132.052 153.855 123.493 157.401 114.564 157.401H76.4293C67.5 157.401 58.9408 153.855 52.6259 147.54C46.3169 141.231 42.7715 132.666 42.7715 123.743V94.8542Z" fill="#37455D"/>
</svg>
